<mxfile host="Electron" agent="Mozilla/5.0 (Macintosh; Intel Mac OS X 10_15_7) AppleWebKit/537.36 (KHTML, like Gecko) draw.io/24.7.17 Chrome/128.0.6613.36 Electron/32.0.1 Safari/537.36" version="24.7.17">
  <diagram name="Page-1" id="2YBvvXClWsGukQMizWep">
    <mxGraphModel dx="1774" dy="1296" grid="1" gridSize="11" guides="1" tooltips="1" connect="1" arrows="1" fold="1" page="1" pageScale="1" pageWidth="1169" pageHeight="1654" math="0" shadow="0">
      <root>
        <mxCell id="0" />
        <mxCell id="1" parent="0" />
        <mxCell id="2BKxFYToZWfnI0Qnngfg-35" value="" style="edgeStyle=orthogonalEdgeStyle;rounded=0;orthogonalLoop=1;jettySize=auto;html=1;entryX=0.5;entryY=0;entryDx=0;entryDy=0;" edge="1" parent="1" source="2BKxFYToZWfnI0Qnngfg-6" target="2BKxFYToZWfnI0Qnngfg-34">
          <mxGeometry relative="1" as="geometry">
            <mxPoint x="590" y="88" as="sourcePoint" />
          </mxGeometry>
        </mxCell>
        <mxCell id="2BKxFYToZWfnI0Qnngfg-6" value="&lt;font style=&quot;font-size: 20px;&quot;&gt;DICTIONARY&lt;/font&gt;" style="rounded=0;whiteSpace=wrap;html=1;fontSize=20;" vertex="1" parent="1">
          <mxGeometry x="440" y="44" width="304" height="44" as="geometry" />
        </mxCell>
        <mxCell id="2BKxFYToZWfnI0Qnngfg-20" value="/v1/kanji/$input" style="whiteSpace=wrap;html=1;fontSize=20;rounded=0;" vertex="1" parent="1">
          <mxGeometry x="484" y="253" width="216" height="44" as="geometry" />
        </mxCell>
        <mxCell id="2BKxFYToZWfnI0Qnngfg-36" value="" style="edgeStyle=orthogonalEdgeStyle;rounded=0;orthogonalLoop=1;jettySize=auto;html=1;entryX=0.5;entryY=0;entryDx=0;entryDy=0;" edge="1" parent="1" source="2BKxFYToZWfnI0Qnngfg-34" target="2BKxFYToZWfnI0Qnngfg-20">
          <mxGeometry relative="1" as="geometry" />
        </mxCell>
        <mxCell id="2BKxFYToZWfnI0Qnngfg-34" value="$input" style="whiteSpace=wrap;html=1;fontSize=20;rounded=0;" vertex="1" parent="1">
          <mxGeometry x="528" y="132" width="128" height="44" as="geometry" />
        </mxCell>
        <mxCell id="2BKxFYToZWfnI0Qnngfg-37" value="$output" style="swimlane;fontStyle=0;childLayout=stackLayout;horizontal=1;startSize=30;horizontalStack=0;resizeParent=1;resizeParentMax=0;resizeLast=0;collapsible=1;marginBottom=0;whiteSpace=wrap;html=1;fontSize=20;fillColor=#1ba1e2;fontColor=#ffffff;strokeColor=#006EAF;" vertex="1" parent="1">
          <mxGeometry x="865" y="880" width="220" height="180" as="geometry" />
        </mxCell>
        <mxCell id="2BKxFYToZWfnI0Qnngfg-38" value="kanji" style="text;strokeColor=none;fillColor=none;align=left;verticalAlign=middle;spacingLeft=4;spacingRight=4;overflow=hidden;points=[[0,0.5],[1,0.5]];portConstraint=eastwest;rotatable=0;whiteSpace=wrap;html=1;fontSize=20;" vertex="1" parent="2BKxFYToZWfnI0Qnngfg-37">
          <mxGeometry y="30" width="220" height="30" as="geometry" />
        </mxCell>
        <mxCell id="2BKxFYToZWfnI0Qnngfg-43" value="kunyomi" style="text;strokeColor=none;fillColor=none;align=left;verticalAlign=middle;spacingLeft=4;spacingRight=4;overflow=hidden;points=[[0,0.5],[1,0.5]];portConstraint=eastwest;rotatable=0;whiteSpace=wrap;html=1;fontSize=20;" vertex="1" parent="2BKxFYToZWfnI0Qnngfg-37">
          <mxGeometry y="60" width="220" height="30" as="geometry" />
        </mxCell>
        <mxCell id="2BKxFYToZWfnI0Qnngfg-39" value="meaning" style="text;strokeColor=none;fillColor=none;align=left;verticalAlign=middle;spacingLeft=4;spacingRight=4;overflow=hidden;points=[[0,0.5],[1,0.5]];portConstraint=eastwest;rotatable=0;whiteSpace=wrap;html=1;fontSize=20;" vertex="1" parent="2BKxFYToZWfnI0Qnngfg-37">
          <mxGeometry y="90" width="220" height="30" as="geometry" />
        </mxCell>
        <mxCell id="2BKxFYToZWfnI0Qnngfg-44" value="onyomi" style="text;strokeColor=none;fillColor=none;align=left;verticalAlign=middle;spacingLeft=4;spacingRight=4;overflow=hidden;points=[[0,0.5],[1,0.5]];portConstraint=eastwest;rotatable=0;whiteSpace=wrap;html=1;fontSize=20;" vertex="1" parent="2BKxFYToZWfnI0Qnngfg-37">
          <mxGeometry y="120" width="220" height="30" as="geometry" />
        </mxCell>
        <mxCell id="2BKxFYToZWfnI0Qnngfg-40" value="jlpt" style="text;strokeColor=none;fillColor=none;align=left;verticalAlign=middle;spacingLeft=4;spacingRight=4;overflow=hidden;points=[[0,0.5],[1,0.5]];portConstraint=eastwest;rotatable=0;whiteSpace=wrap;html=1;fontSize=20;" vertex="1" parent="2BKxFYToZWfnI0Qnngfg-37">
          <mxGeometry y="150" width="220" height="30" as="geometry" />
        </mxCell>
        <mxCell id="2BKxFYToZWfnI0Qnngfg-85" value="&lt;font color=&quot;#ccff99&quot; style=&quot;font-size: 20px;&quot;&gt;list of map&lt;/font&gt;" style="edgeLabel;resizable=0;html=1;;align=center;verticalAlign=middle;" connectable="0" vertex="1" parent="2BKxFYToZWfnI0Qnngfg-37">
          <mxGeometry y="180" width="220" as="geometry">
            <mxPoint x="-9" y="-4" as="offset" />
          </mxGeometry>
        </mxCell>
        <mxCell id="2BKxFYToZWfnI0Qnngfg-49" value="" style="edgeStyle=elbowEdgeStyle;elbow=vertical;endArrow=classic;html=1;curved=0;rounded=0;endSize=8;startSize=8;entryX=0.474;entryY=-0.04;entryDx=0;entryDy=0;strokeColor=#FF9999;entryPerimeter=0;" edge="1" parent="1" target="2BKxFYToZWfnI0Qnngfg-52">
          <mxGeometry width="50" height="50" relative="1" as="geometry">
            <mxPoint x="803" y="363" as="sourcePoint" />
            <mxPoint x="414" y="374" as="targetPoint" />
            <Array as="points">
              <mxPoint x="612" y="363" />
            </Array>
          </mxGeometry>
        </mxCell>
        <mxCell id="2BKxFYToZWfnI0Qnngfg-51" value="&lt;font color=&quot;#ff6666&quot; style=&quot;font-size: 20px;&quot;&gt;if returns error&lt;/font&gt;" style="edgeLabel;resizable=0;html=1;;align=center;verticalAlign=middle;" connectable="0" vertex="1" parent="1">
          <mxGeometry x="326" y="363" as="geometry" />
        </mxCell>
        <mxCell id="2BKxFYToZWfnI0Qnngfg-52" value="/v1/kanji/reading/$input&lt;div&gt;List &amp;lt;String&amp;gt; kanjiOfReading&lt;/div&gt;" style="rounded=0;whiteSpace=wrap;html=1;fontSize=20;" vertex="1" parent="1">
          <mxGeometry x="84" y="440" width="308" height="60" as="geometry" />
        </mxCell>
        <mxCell id="2BKxFYToZWfnI0Qnngfg-53" value="/v1/kanji/$kanjiOfReading" style="whiteSpace=wrap;html=1;fontSize=20;rounded=0;" vertex="1" parent="1">
          <mxGeometry x="84" y="594" width="308" height="50" as="geometry" />
        </mxCell>
        <mxCell id="2BKxFYToZWfnI0Qnngfg-55" value="&lt;font color=&quot;#ccff99&quot; style=&quot;font-size: 20px;&quot;&gt;loop query&lt;/font&gt;" style="edgeLabel;resizable=0;html=1;;align=center;verticalAlign=middle;" connectable="0" vertex="1" parent="1">
          <mxGeometry x="326" y="572" as="geometry" />
        </mxCell>
        <mxCell id="2BKxFYToZWfnI0Qnngfg-57" value="" style="edgeStyle=elbowEdgeStyle;elbow=vertical;endArrow=classic;html=1;curved=0;rounded=0;endSize=8;startSize=8;entryX=0.7;entryY=0;entryDx=0;entryDy=0;exitX=0.5;exitY=1;exitDx=0;exitDy=0;labelBackgroundColor=none;strokeColor=#66B2FF;entryPerimeter=0;" edge="1" parent="1" source="2BKxFYToZWfnI0Qnngfg-20" target="2BKxFYToZWfnI0Qnngfg-37">
          <mxGeometry width="50" height="50" relative="1" as="geometry">
            <mxPoint x="880" y="275" as="sourcePoint" />
            <mxPoint x="491" y="396" as="targetPoint" />
            <Array as="points">
              <mxPoint x="1019" y="363" />
            </Array>
          </mxGeometry>
        </mxCell>
        <mxCell id="2BKxFYToZWfnI0Qnngfg-64" value="" style="endArrow=classic;html=1;rounded=0;exitX=1;exitY=0.5;exitDx=0;exitDy=0;entryX=0;entryY=0.5;entryDx=0;entryDy=0;strokeColor=#FF9999;" edge="1" parent="1" source="2BKxFYToZWfnI0Qnngfg-52" target="2BKxFYToZWfnI0Qnngfg-66">
          <mxGeometry width="50" height="50" relative="1" as="geometry">
            <mxPoint x="513" y="611" as="sourcePoint" />
            <mxPoint x="579" y="470" as="targetPoint" />
          </mxGeometry>
        </mxCell>
        <mxCell id="2BKxFYToZWfnI0Qnngfg-65" value="&lt;font color=&quot;#ff6666&quot; style=&quot;font-size: 20px;&quot;&gt;if returns error&lt;/font&gt;" style="edgeLabel;resizable=0;html=1;;align=center;verticalAlign=middle;" connectable="0" vertex="1" parent="1">
          <mxGeometry x="524" y="341" as="geometry">
            <mxPoint x="-48" y="129" as="offset" />
          </mxGeometry>
        </mxCell>
        <mxCell id="2BKxFYToZWfnI0Qnngfg-66" value="&lt;font style=&quot;font-size: 20px;&quot;&gt;/v1/kanji/all&lt;/font&gt;&lt;div&gt;&lt;font style=&quot;font-size: 20px;&quot;&gt;List&amp;lt;String&amp;gt; allKanji&lt;/font&gt;&lt;/div&gt;" style="rounded=0;whiteSpace=wrap;html=1;" vertex="1" parent="1">
          <mxGeometry x="568" y="440" width="264" height="60" as="geometry" />
        </mxCell>
        <mxCell id="2BKxFYToZWfnI0Qnngfg-67" value="" style="endArrow=classic;html=1;rounded=0;exitX=0.5;exitY=1;exitDx=0;exitDy=0;entryX=0.5;entryY=0;entryDx=0;entryDy=0;entryPerimeter=0;strokeColor=#66B2FF;" edge="1" parent="1" source="2BKxFYToZWfnI0Qnngfg-66" target="2BKxFYToZWfnI0Qnngfg-68">
          <mxGeometry width="50" height="50" relative="1" as="geometry">
            <mxPoint x="590" y="677" as="sourcePoint" />
            <mxPoint x="700" y="593" as="targetPoint" />
          </mxGeometry>
        </mxCell>
        <mxCell id="2BKxFYToZWfnI0Qnngfg-90" value="" style="edgeStyle=orthogonalEdgeStyle;rounded=0;orthogonalLoop=1;jettySize=auto;html=1;strokeColor=#FF9999;" edge="1" parent="1" source="2BKxFYToZWfnI0Qnngfg-68" target="2BKxFYToZWfnI0Qnngfg-89">
          <mxGeometry relative="1" as="geometry" />
        </mxCell>
        <mxCell id="2BKxFYToZWfnI0Qnngfg-68" value="/v1/kanji/$allKanji&lt;div&gt;if &quot;meanings&quot; contains $input&lt;/div&gt;" style="rounded=0;whiteSpace=wrap;html=1;fontSize=20;" vertex="1" parent="1">
          <mxGeometry x="535" y="594" width="330" height="77" as="geometry" />
        </mxCell>
        <mxCell id="2BKxFYToZWfnI0Qnngfg-72" value="&lt;font color=&quot;#ccff99&quot; style=&quot;font-size: 20px;&quot;&gt;loop query&lt;/font&gt;" style="edgeLabel;resizable=0;html=1;;align=center;verticalAlign=middle;" connectable="0" vertex="1" parent="1">
          <mxGeometry x="821" y="572" as="geometry" />
        </mxCell>
        <mxCell id="2BKxFYToZWfnI0Qnngfg-73" value="" style="endArrow=classic;html=1;rounded=0;exitX=0.5;exitY=1;exitDx=0;exitDy=0;strokeColor=#66B2FF;" edge="1" parent="1" source="2BKxFYToZWfnI0Qnngfg-68" target="2BKxFYToZWfnI0Qnngfg-74">
          <mxGeometry width="50" height="50" relative="1" as="geometry">
            <mxPoint x="579" y="611" as="sourcePoint" />
            <mxPoint x="700" y="759" as="targetPoint" />
          </mxGeometry>
        </mxCell>
        <mxCell id="2BKxFYToZWfnI0Qnngfg-74" value="Sort result by &quot;freq_mainichi_shinbun&quot;" style="rounded=0;whiteSpace=wrap;html=1;fontSize=20;" vertex="1" parent="1">
          <mxGeometry x="568" y="767" width="263" height="60" as="geometry" />
        </mxCell>
        <mxCell id="2BKxFYToZWfnI0Qnngfg-81" value="" style="endArrow=classic;html=1;rounded=0;entryX=0.475;entryY=-0.026;entryDx=0;entryDy=0;entryPerimeter=0;exitX=0.477;exitY=0.985;exitDx=0;exitDy=0;exitPerimeter=0;strokeColor=#66B2FF;" edge="1" parent="1" source="2BKxFYToZWfnI0Qnngfg-52" target="2BKxFYToZWfnI0Qnngfg-53">
          <mxGeometry width="50" height="50" relative="1" as="geometry">
            <mxPoint x="230" y="506" as="sourcePoint" />
            <mxPoint x="585" y="836" as="targetPoint" />
          </mxGeometry>
        </mxCell>
        <mxCell id="2BKxFYToZWfnI0Qnngfg-82" value="" style="edgeStyle=elbowEdgeStyle;elbow=vertical;endArrow=classic;html=1;curved=0;rounded=0;endSize=8;startSize=8;strokeColor=#66B2FF;exitX=0.475;exitY=1.035;exitDx=0;exitDy=0;exitPerimeter=0;entryX=0;entryY=0.417;entryDx=0;entryDy=0;entryPerimeter=0;" edge="1" parent="1" source="2BKxFYToZWfnI0Qnngfg-53" target="2BKxFYToZWfnI0Qnngfg-74">
          <mxGeometry width="50" height="50" relative="1" as="geometry">
            <mxPoint x="712" y="1012" as="sourcePoint" />
            <mxPoint x="502" y="792" as="targetPoint" />
            <Array as="points">
              <mxPoint x="348" y="792" />
            </Array>
          </mxGeometry>
        </mxCell>
        <mxCell id="2BKxFYToZWfnI0Qnngfg-83" value="" style="edgeStyle=elbowEdgeStyle;elbow=vertical;endArrow=classic;html=1;curved=0;rounded=0;endSize=8;startSize=8;strokeColor=#66B2FF;exitX=1;exitY=0.5;exitDx=0;exitDy=0;entryX=0.339;entryY=-0.011;entryDx=0;entryDy=0;entryPerimeter=0;" edge="1" parent="1" source="2BKxFYToZWfnI0Qnngfg-74" target="2BKxFYToZWfnI0Qnngfg-37">
          <mxGeometry width="50" height="50" relative="1" as="geometry">
            <mxPoint x="615" y="803" as="sourcePoint" />
            <mxPoint x="953" y="949" as="targetPoint" />
            <Array as="points">
              <mxPoint x="986" y="792" />
            </Array>
          </mxGeometry>
        </mxCell>
        <mxCell id="2BKxFYToZWfnI0Qnngfg-71" value="&lt;font color=&quot;#66b2ff&quot; style=&quot;font-size: 20px;&quot;&gt;if success&lt;/font&gt;" style="edgeLabel;resizable=0;html=1;;align=center;verticalAlign=middle;" connectable="0" vertex="1" parent="1">
          <mxGeometry x="979" y="827" as="geometry" />
        </mxCell>
        <mxCell id="2BKxFYToZWfnI0Qnngfg-89" value="err msg" style="whiteSpace=wrap;html=1;fontSize=20;rounded=0;" vertex="1" parent="1">
          <mxGeometry x="896" y="680.75" width="83" height="46.5" as="geometry" />
        </mxCell>
        <mxCell id="2BKxFYToZWfnI0Qnngfg-91" value="&lt;font color=&quot;#ff6666&quot; style=&quot;font-size: 20px;&quot;&gt;if error&lt;/font&gt;" style="edgeLabel;resizable=0;html=1;;align=center;verticalAlign=middle;" connectable="0" vertex="1" parent="1">
          <mxGeometry x="924" y="619" as="geometry">
            <mxPoint x="5" y="-1" as="offset" />
          </mxGeometry>
        </mxCell>
        <mxCell id="2BKxFYToZWfnI0Qnngfg-92" value="花" style="text;html=1;align=center;verticalAlign=middle;whiteSpace=wrap;rounded=0;fontSize=20;fontColor=#3399FF;" vertex="1" parent="1">
          <mxGeometry x="656" y="132" width="114" height="44" as="geometry" />
        </mxCell>
        <mxCell id="2BKxFYToZWfnI0Qnngfg-93" value="花" style="text;html=1;align=center;verticalAlign=middle;whiteSpace=wrap;rounded=0;fontSize=20;fontColor=#3399FF;" vertex="1" parent="1">
          <mxGeometry x="990" y="836" width="114" height="44" as="geometry" />
        </mxCell>
        <mxCell id="2BKxFYToZWfnI0Qnngfg-94" value="花" style="text;html=1;align=center;verticalAlign=middle;whiteSpace=wrap;rounded=0;fontSize=20;fontColor=#3399FF;" vertex="1" parent="1">
          <mxGeometry x="678" y="253" width="114" height="44" as="geometry" />
        </mxCell>
        <mxCell id="2BKxFYToZWfnI0Qnngfg-95" value="hana" style="text;html=1;align=center;verticalAlign=middle;whiteSpace=wrap;rounded=0;fontSize=20;fontColor=#FF3333;" vertex="1" parent="1">
          <mxGeometry x="396" y="132" width="114" height="44" as="geometry" />
        </mxCell>
        <mxCell id="2BKxFYToZWfnI0Qnngfg-96" value="hana" style="text;html=1;align=center;verticalAlign=middle;whiteSpace=wrap;rounded=0;fontSize=20;fontColor=#FF3333;" vertex="1" parent="1">
          <mxGeometry x="594" y="528" width="114" height="44" as="geometry" />
        </mxCell>
        <mxCell id="2BKxFYToZWfnI0Qnngfg-97" value="はな" style="text;html=1;align=center;verticalAlign=middle;whiteSpace=wrap;rounded=0;fontSize=20;fontColor=#FFFF33;" vertex="1" parent="1">
          <mxGeometry x="297" y="132" width="114" height="44" as="geometry" />
        </mxCell>
        <mxCell id="2BKxFYToZWfnI0Qnngfg-98" value="はな" style="text;html=1;align=center;verticalAlign=middle;whiteSpace=wrap;rounded=0;fontSize=20;fontColor=#FFFF33;" vertex="1" parent="1">
          <mxGeometry x="77" y="396" width="114" height="44" as="geometry" />
        </mxCell>
        <mxCell id="2BKxFYToZWfnI0Qnngfg-99" value="hana" style="text;html=1;align=center;verticalAlign=middle;whiteSpace=wrap;rounded=0;fontSize=20;fontColor=#FF3333;" vertex="1" parent="1">
          <mxGeometry x="421" y="418" width="114" height="44" as="geometry" />
        </mxCell>
        <mxCell id="2BKxFYToZWfnI0Qnngfg-100" value="はな" style="text;html=1;align=center;verticalAlign=middle;whiteSpace=wrap;rounded=0;fontSize=20;fontColor=#FFFF33;" vertex="1" parent="1">
          <mxGeometry x="77" y="550" width="114" height="44" as="geometry" />
        </mxCell>
        <mxCell id="2BKxFYToZWfnI0Qnngfg-102" value="&lt;pre style=&quot;text-align: start; font-size: 20px;&quot;&gt;&lt;pre style=&quot;font-size: 20px;&quot;&gt;&quot;端&quot;,&quot;花&quot;,&quot;芲&quot;,&quot;荂&quot;,&quot;華&quot;,&quot;葩&quot;,&quot;蕐&quot;,&quot;鼻&quot;&lt;/pre&gt;&lt;/pre&gt;" style="text;html=1;align=center;verticalAlign=middle;whiteSpace=wrap;rounded=0;fontSize=20;fontColor=#3399FF;" vertex="1" parent="1">
          <mxGeometry x="502" y="836" width="396" height="44" as="geometry" />
        </mxCell>
      </root>
    </mxGraphModel>
  </diagram>
</mxfile>
